<svg width="159" height="45" viewBox="0 0 159 45" fill="none" xmlns="http://www.w3.org/2000/svg">
<path d="M26.18 5.522C26.1393 5.56267 26.0783 5.66433 25.997 5.827C25.9563 5.98966 25.936 6.27433 25.936 6.681C25.936 7.25033 26.0173 7.79933 26.18 8.328V28.519C26.18 30.593 25.9767 32.5857 25.57 34.497C25.1633 36.4083 24.4517 38.1163 23.435 39.621C22.459 41.085 21.0967 42.244 19.348 43.098C17.64 43.9927 15.444 44.44 12.76 44.44H11.967C9.649 44.44 7.758 44.1147 6.294 43.464C4.87067 42.854 3.75233 42.061 2.939 41.085C2.12567 40.109 1.57667 39.0517 1.292 37.913C1.00733 36.7337 0.865 35.6153 0.865 34.558C0.865 33.6633 0.987 32.8093 1.231 31.996C1.43433 31.142 1.75967 30.41 2.207 29.8C2.61367 29.1493 3.122 28.641 3.732 28.275C4.342 27.8683 5.03333 27.665 5.806 27.665C6.538 27.665 7.00567 27.8683 7.209 28.275C7.41233 28.641 7.514 29.0273 7.514 29.434C7.514 30.3287 7.331 31.081 6.965 31.691C6.599 32.2603 6.19233 32.7687 5.745 33.216C5.33833 33.6633 4.952 34.1107 4.586 34.558C4.22 35.0053 4.037 35.5543 4.037 36.205C4.037 38.157 4.68767 39.56 5.989 40.414C7.29033 41.268 8.917 41.695 10.869 41.695C12.577 41.695 14.0613 41.3493 15.322 40.658C16.5827 39.9667 17.6197 39.0923 18.433 38.035C19.287 36.9777 19.9173 35.839 20.324 34.619C20.7307 33.3583 20.934 32.179 20.934 31.081L20.019 31.142C18.555 31.142 17.274 30.8167 16.176 30.166C15.1187 29.4747 14.224 28.6207 13.492 27.604C12.8007 26.5873 12.272 25.4893 11.906 24.31C11.5807 23.1307 11.418 22.0327 11.418 21.016V18.881C11.418 18.1083 11.5197 17.2137 11.723 16.197C11.9263 15.1397 12.211 14.062 12.577 12.964C12.943 11.8253 13.3903 10.7273 13.919 9.67C14.4477 8.572 15.017 7.596 15.627 6.742C16.237 5.888 16.8877 5.19666 17.579 4.668C18.2703 4.13933 18.982 3.875 19.714 3.875C19.9987 3.875 20.324 3.936 20.69 4.058L24.96 4.363C25.2447 4.40366 25.509 4.50533 25.753 4.668C26.0377 4.83066 26.18 5.11533 26.18 5.522ZM20.934 12.842C21.0153 12.5167 21.0967 12.2117 21.178 11.927C21.2593 11.6423 21.3 11.317 21.3 10.951C21.3 10.4223 21.1577 9.95467 20.873 9.548C20.629 9.10066 20.1613 8.877 19.47 8.877C18.5753 8.877 17.8433 9.243 17.274 9.975C16.7047 10.707 16.2573 11.5813 15.932 12.598C15.6473 13.6147 15.444 14.672 15.322 15.77C15.2 16.868 15.139 17.7627 15.139 18.454C15.139 18.9827 15.1797 19.7553 15.261 20.772C15.3423 21.748 15.5253 22.724 15.81 23.7C16.1353 24.676 16.5623 25.53 17.091 26.262C17.6603 26.994 18.4127 27.36 19.348 27.36C19.4293 27.36 19.653 27.3397 20.019 27.299C20.4257 27.2583 20.7307 27.1973 20.934 27.116V12.842ZM40.1752 28.702C39.5652 29.556 39.0569 30.5117 38.6502 31.569C38.2842 32.5857 37.9589 33.6633 37.6742 34.802C37.3895 35.9 37.1455 37.0183 36.9422 38.157C36.7795 39.255 36.5965 40.3123 36.3932 41.329C36.3119 41.573 35.9865 41.7357 35.4172 41.817C34.8885 41.8983 34.5022 41.939 34.2582 41.939C33.5262 41.939 32.9162 41.8983 32.4282 41.817C31.9809 41.7357 31.6352 41.5527 31.3912 41.268C31.1472 40.9427 30.9642 40.475 30.8422 39.865C30.7202 39.2143 30.6185 38.3603 30.5372 37.303L31.3302 19.186C31.3302 18.6573 31.6149 18.393 32.1842 18.393C32.3875 18.393 32.6722 18.4337 33.0382 18.515C33.4042 18.5557 33.7905 18.637 34.1972 18.759C34.6039 18.881 34.9495 19.0437 35.2342 19.247C35.5189 19.4097 35.6612 19.613 35.6612 19.857V32.24C35.7019 32.1993 35.7629 32.0367 35.8442 31.752C36.1289 31.02 36.4745 30.1253 36.8812 29.068C37.2879 27.97 37.7352 26.933 38.2232 25.957C38.7112 24.981 39.2195 24.1473 39.7482 23.456C40.3175 22.7647 40.8869 22.419 41.4562 22.419C42.1882 22.419 42.7372 22.602 43.1032 22.968C43.5099 23.2933 43.8149 23.7203 44.0182 24.249C44.2215 24.7777 44.3435 25.347 44.3842 25.957C44.4249 26.567 44.4452 27.1567 44.4452 27.726C44.4452 28.1327 44.4045 28.8037 44.3232 29.739C44.2419 30.6743 44.2012 32.0773 44.2012 33.948C44.2012 35.0053 44.3029 35.961 44.5062 36.815C44.7095 37.669 45.1162 38.096 45.7262 38.096C46.1735 38.096 46.5802 37.8927 46.9462 37.486C47.3122 37.0793 47.6375 36.571 47.9222 35.961C48.2475 35.351 48.5119 34.7003 48.7152 34.009C48.9185 33.3177 49.0405 32.667 49.0812 32.057C49.1219 31.2843 49.4269 30.898 49.9962 30.898C50.3622 30.898 50.6062 31.02 50.7282 31.264C50.8502 31.508 50.9112 31.7927 50.9112 32.118V32.24C50.8705 33.0533 50.7079 33.9683 50.4232 34.985C50.1792 36.0017 49.7929 36.9573 49.2642 37.852C48.7762 38.7467 48.1255 39.499 47.3122 40.109C46.4989 40.719 45.5025 41.024 44.3232 41.024C42.4932 41.024 41.3139 40.3733 40.7852 39.072C40.2972 37.73 40.0532 35.7577 40.0532 33.155L40.1752 28.702ZM63.9461 38.218C63.9461 39.194 63.6208 39.9463 62.9701 40.475C62.3195 41.0037 61.5671 41.39 60.7131 41.634C59.8998 41.878 59.0661 42.0203 58.2121 42.061C57.3988 42.1423 56.8091 42.183 56.4431 42.183C55.8738 42.183 55.1621 42.122 54.3081 42C53.4948 41.878 52.6815 41.695 51.8681 41.451C51.0955 41.1663 50.4245 40.78 49.8551 40.292C49.3265 39.804 49.0621 39.194 49.0621 38.462C49.0621 38.0147 49.2248 37.7097 49.5501 37.547C49.9161 37.3437 50.2618 37.242 50.5871 37.242C51.0345 37.242 51.4615 37.4047 51.8681 37.73C52.3155 38.0553 52.7628 38.401 53.2101 38.767C53.6981 39.133 54.2268 39.4787 54.7961 39.804C55.3655 40.1293 56.0161 40.292 56.7481 40.292C57.0735 40.292 57.5005 40.1903 58.0291 39.987C58.5985 39.743 58.8831 39.3363 58.8831 38.767C58.8831 38.1977 58.6391 37.6487 58.1511 37.12C57.7038 36.5913 57.1141 36.0423 56.3821 35.473C55.6908 34.9037 54.9385 34.314 54.1251 33.704C53.3118 33.094 52.5391 32.4433 51.8071 31.752C51.1158 31.02 50.5261 30.227 50.0381 29.373C49.5908 28.519 49.3671 27.5837 49.3671 26.567C49.3671 25.1437 49.8145 23.944 50.7091 22.968C51.6445 21.992 52.7221 21.2193 53.9421 20.65C55.2028 20.0807 56.4838 19.674 57.7851 19.43C59.0865 19.186 60.1031 19.064 60.8351 19.064C61.5265 19.064 62.2178 19.2063 62.9091 19.491C63.6005 19.7757 63.9461 20.3247 63.9461 21.138C63.9461 21.382 63.8851 21.748 63.7631 22.236C63.6818 22.6833 63.5191 23.1307 63.2751 23.578C63.0718 24.0253 62.7871 24.432 62.4211 24.798C62.0551 25.1233 61.5875 25.286 61.0181 25.286C60.8555 25.286 60.6928 25.225 60.5301 25.103C60.3675 24.9403 60.1845 24.7777 59.9811 24.615C59.7778 24.4117 59.5541 24.249 59.3101 24.127C59.1068 23.9643 58.8628 23.883 58.5781 23.883C57.1548 23.883 56.1585 24.31 55.5891 25.164C55.0198 25.9773 54.7351 26.8517 54.7351 27.787C54.7351 28.6003 55.2028 29.4543 56.1381 30.349C57.1141 31.2437 58.1715 32.1383 59.3101 33.033C60.4895 33.9277 61.5468 34.8223 62.4821 35.717C63.4581 36.571 63.9461 37.4047 63.9461 38.218ZM65.26 30.959C65.3007 28.885 65.3617 26.7703 65.443 24.615C65.5244 22.4597 65.6057 20.467 65.687 18.637C65.687 18.3117 65.3617 18.088 64.711 17.966C64.0604 17.844 63.3284 17.722 62.515 17.6C61.7017 17.478 60.9697 17.295 60.319 17.051C59.6684 16.7663 59.343 16.319 59.343 15.709C59.343 15.1803 59.8717 14.8753 60.929 14.794C61.9864 14.7127 63.552 14.672 65.626 14.672C65.7887 14.672 65.8904 14.428 65.931 13.94C66.0124 13.452 66.053 12.842 66.053 12.11C66.0937 11.3373 66.114 10.524 66.114 9.67C66.1547 8.816 66.1954 8.023 66.236 7.291C66.2767 6.51833 66.3377 5.888 66.419 5.4C66.541 4.912 66.6834 4.668 66.846 4.668C67.0494 4.668 67.4154 4.70866 67.944 4.79C68.4727 4.87133 69.0217 4.99333 69.591 5.156C70.1604 5.278 70.6484 5.44067 71.055 5.644C71.5024 5.84733 71.726 6.071 71.726 6.315L71.055 14.245C71.055 14.489 71.2584 14.672 71.665 14.794C72.1124 14.8753 72.6614 14.9363 73.312 14.977C74.0034 14.977 74.715 14.977 75.447 14.977C76.2197 14.977 76.9314 15.038 77.582 15.16C78.2734 15.282 78.8224 15.4853 79.229 15.77C79.6764 16.014 79.9 16.4003 79.9 16.929C79.9 17.0103 79.8594 17.1527 79.778 17.356C79.6967 17.5187 79.595 17.6 79.473 17.6C79.3917 17.6 79.2697 17.539 79.107 17.417C78.985 17.295 78.619 17.234 78.009 17.234C77.8464 17.234 77.399 17.2543 76.667 17.295C75.935 17.3357 75.1624 17.3967 74.349 17.478C73.5357 17.5593 72.7834 17.661 72.092 17.783C71.4414 17.8643 71.0754 17.9863 70.994 18.149C70.9534 18.2303 70.8924 18.7183 70.811 19.613C70.7704 20.467 70.7094 21.6057 70.628 23.029C70.5874 24.4523 70.5467 26.0993 70.506 27.97C70.4654 29.8 70.445 31.7317 70.445 33.765C70.445 34.5377 70.4857 35.29 70.567 36.022C70.6484 36.754 70.7704 37.425 70.933 38.035C71.0957 38.6043 71.299 39.072 71.543 39.438C71.8277 39.804 72.153 39.987 72.519 39.987C73.0477 39.987 73.5357 39.7633 73.983 39.316C74.4304 38.8687 74.837 38.2587 75.203 37.486C75.569 36.7133 75.8944 35.839 76.179 34.863C76.4637 33.887 76.7077 32.8907 76.911 31.874C77.033 31.264 77.1754 30.837 77.338 30.593C77.5007 30.3083 77.7447 30.166 78.07 30.166C78.3547 30.166 78.5987 30.2677 78.802 30.471C79.046 30.6337 79.168 31.0403 79.168 31.691C79.168 32.0977 79.1477 32.362 79.107 32.484C78.985 33.216 78.741 34.2327 78.375 35.534C78.0497 36.7947 77.582 38.0553 76.972 39.316C76.4027 40.536 75.691 41.6137 74.837 42.549C73.983 43.4843 72.9867 43.952 71.848 43.952C70.75 43.952 69.7944 43.6267 68.981 42.976C68.1677 42.366 67.4764 41.512 66.907 40.414C66.3784 39.2753 65.9717 37.9537 65.687 36.449C65.4024 34.9037 65.26 33.2567 65.26 31.508V30.959ZM101.459 35.351C101.377 35.9203 101.174 36.5913 100.849 37.364C100.523 38.1367 100.096 38.889 99.5678 39.621C99.0798 40.3123 98.4901 40.902 97.7988 41.39C97.1481 41.878 96.4161 42.122 95.6028 42.122C94.3828 42.122 93.3051 41.6543 92.3698 40.719C91.4751 39.7837 90.9261 38.462 90.7228 36.754C90.4788 37.4047 90.1941 38.157 89.8688 39.011C89.5434 39.865 89.1368 40.658 88.6488 41.39C88.1608 42.122 87.5914 42.732 86.9408 43.22C86.3308 43.7487 85.5988 44.013 84.7448 44.013C84.5008 44.013 84.3178 43.9927 84.1958 43.952C84.0738 43.9113 83.9314 43.8503 83.7688 43.769C83.6468 43.7283 83.4841 43.6877 83.2808 43.647C83.1181 43.6063 82.8741 43.586 82.5488 43.586C81.5728 43.586 80.7391 43.2607 80.0478 42.61C79.3971 42 78.8684 41.207 78.4618 40.231C78.0551 39.255 77.7501 38.1977 77.5468 37.059C77.3841 35.8797 77.3028 34.7817 77.3028 33.765C77.3028 31.325 77.4248 29.007 77.6688 26.811C77.9534 24.615 78.4008 22.6833 79.0108 21.016C79.6208 19.308 80.4138 17.966 81.3898 16.99C82.3658 15.9733 83.5451 15.465 84.9278 15.465C85.7411 15.465 86.3511 15.5463 86.7578 15.709C87.2051 15.831 87.6118 15.9937 87.9778 16.197C88.3438 16.3597 88.7301 16.5427 89.1368 16.746C89.5841 16.9493 90.1941 17.112 90.9668 17.234C91.8208 17.722 92.4104 18.3117 92.7358 19.003C93.1018 19.6537 93.3254 20.3653 93.4068 21.138C93.5288 21.9107 93.5694 22.724 93.5288 23.578C93.4881 24.3913 93.5288 25.2047 93.6508 26.018C93.6508 26.0587 93.7321 26.1197 93.8948 26.201C94.0981 26.2823 94.3218 26.384 94.5658 26.506C94.8098 26.5873 95.0131 26.7297 95.1758 26.933C95.3791 27.0957 95.4808 27.3193 95.4808 27.604V27.848C95.0741 28.9053 94.8301 29.8407 94.7488 30.654C94.6674 31.4673 94.6268 32.4433 94.6268 33.582C94.6268 34.1513 94.6471 34.7817 94.6878 35.473C94.7691 36.1237 94.8708 36.754 94.9928 37.364C95.1554 37.9333 95.3791 38.4213 95.6638 38.828C95.9484 39.194 96.3144 39.377 96.7618 39.377C97.2498 39.377 97.6768 39.133 98.0428 38.645C98.4494 38.157 98.7748 37.608 99.0188 36.998C99.3034 36.3473 99.5271 35.6967 99.6898 35.046C99.8931 34.3953 100.015 33.9073 100.056 33.582C100.137 33.094 100.34 32.85 100.666 32.85C100.869 32.85 101.052 32.972 101.215 33.216C101.418 33.4193 101.52 33.8057 101.52 34.375C101.52 34.5377 101.52 34.7003 101.52 34.863C101.52 34.985 101.499 35.1477 101.459 35.351ZM90.1738 25.469C90.1738 25.0217 90.1331 24.493 90.0518 23.883C89.9704 23.273 89.8281 22.7037 89.6248 22.175C89.4214 21.6463 89.1164 21.199 88.7098 20.833C88.3031 20.467 87.7541 20.284 87.0628 20.284C85.9241 20.284 84.9888 20.8127 84.2568 21.87C83.5654 22.8867 83.0164 24.1067 82.6098 25.53C82.2031 26.9127 81.9388 28.3563 81.8168 29.861C81.6948 31.325 81.6338 32.484 81.6338 33.338C81.6338 33.9887 81.6541 34.7817 81.6948 35.717C81.7761 36.6117 81.8981 37.4657 82.0608 38.279C82.2234 39.0923 82.4471 39.7837 82.7318 40.353C83.0571 40.9223 83.4638 41.207 83.9518 41.207C85.1311 41.207 86.0258 40.7597 86.6358 39.865C87.2864 38.9297 87.7744 37.791 88.0998 36.449C88.4251 35.0663 88.6488 33.6023 88.7708 32.057C88.9334 30.471 89.0758 29.0273 89.1978 27.726C89.2791 27.0347 89.4621 26.6077 89.7468 26.445C90.0314 26.2417 90.1738 26.0993 90.1738 26.018V25.469ZM124.534 31.569C124.453 32.4637 124.27 33.4803 123.985 34.619C123.741 35.7577 123.355 36.8353 122.826 37.852C122.338 38.8687 121.667 39.7227 120.813 40.414C120 41.1053 119.003 41.451 117.824 41.451C116.075 41.451 114.794 41.0443 113.981 40.231C113.208 39.4177 112.558 38.157 112.029 36.449L111.968 36.754C111.805 37.4047 111.602 38.1163 111.358 38.889C111.155 39.6617 110.85 40.3733 110.443 41.024C110.077 41.634 109.609 42.1423 109.04 42.549C108.471 42.9963 107.739 43.22 106.844 43.22C106.234 43.22 105.624 43.098 105.014 42.854C104.445 42.6507 103.835 42.3863 103.184 42.061C102.249 41.573 101.517 40.9223 100.988 40.109C100.459 39.2957 100.073 38.462 99.8289 37.608C99.5849 36.754 99.4426 35.9407 99.4019 35.168C99.3613 34.3547 99.3409 33.7243 99.3409 33.277V32.24C99.3409 31.996 99.4019 31.4673 99.5239 30.654C99.6459 29.8407 99.8289 28.9053 100.073 27.848C100.358 26.75 100.683 25.6113 101.049 24.432C101.456 23.2527 101.923 22.175 102.452 21.199C103.021 20.223 103.652 19.4097 104.343 18.759C105.075 18.1083 105.888 17.783 106.783 17.783C107.759 17.783 108.694 17.9457 109.589 18.271C110.524 18.5963 111.195 18.8403 111.602 19.003C111.643 18.271 111.663 17.3763 111.663 16.319C111.704 15.2617 111.724 14.2247 111.724 13.208C111.765 12.1507 111.785 11.1747 111.785 10.28C111.785 9.38533 111.785 8.71433 111.785 8.267C111.785 7.20966 111.765 6.315 111.724 5.583C111.683 4.81033 111.602 4.15966 111.48 3.631C111.399 3.10233 111.297 2.67533 111.175 2.35C111.053 2.02466 110.911 1.74 110.748 1.496C111.439 1.29266 112.11 1.15033 112.761 1.069C113.452 0.987665 114.083 0.946998 114.652 0.946998C115.587 0.946998 116.299 1.02833 116.787 1.191C117.316 1.313 117.58 1.65867 117.58 2.228C117.58 2.472 117.519 3.18366 117.397 4.363C117.275 5.54233 117.153 7.08767 117.031 8.999C116.909 10.8697 116.787 13.0453 116.665 15.526C116.543 18.0067 116.482 20.65 116.482 23.456V29.617C116.482 30.7557 116.502 31.8537 116.543 32.911C116.584 33.9277 116.665 34.8427 116.787 35.656C116.95 36.4287 117.173 37.059 117.458 37.547C117.743 37.9943 118.149 38.218 118.678 38.218C119.857 38.218 120.732 37.547 121.301 36.205C121.911 34.8223 122.399 32.667 122.765 29.739C122.806 29.4137 122.887 29.129 123.009 28.885C123.131 28.641 123.395 28.519 123.802 28.519C124.168 28.519 124.392 28.763 124.473 29.251C124.595 29.6983 124.636 30.1457 124.595 30.593L124.534 31.569ZM111.663 22.724C111.663 22.602 111.561 22.4597 111.358 22.297C111.195 22.1343 110.972 21.9717 110.687 21.809C110.443 21.6463 110.179 21.504 109.894 21.382C109.609 21.26 109.365 21.199 109.162 21.199C108.349 21.199 107.617 21.7073 106.966 22.724C106.356 23.7 105.827 24.92 105.38 26.384C104.973 27.848 104.668 29.4137 104.465 31.081C104.262 32.7483 104.16 34.2327 104.16 35.534C104.16 36.022 104.18 36.5913 104.221 37.242C104.262 37.8927 104.363 38.5027 104.526 39.072C104.689 39.6413 104.912 40.1293 105.197 40.536C105.482 40.9427 105.868 41.146 106.356 41.146C106.885 41.146 107.373 40.841 107.82 40.231C108.267 39.621 108.674 38.828 109.04 37.852C109.406 36.876 109.731 35.778 110.016 34.558C110.341 33.338 110.606 32.1383 110.809 30.959C111.053 29.739 111.236 28.6003 111.358 27.543C111.48 26.445 111.561 25.5707 111.602 24.92L111.663 22.724ZM140.455 32.606C140.455 33.6227 140.272 34.7613 139.906 36.022C139.54 37.2827 138.971 38.462 138.198 39.56C137.425 40.6173 136.429 41.512 135.209 42.244C134.03 42.976 132.606 43.342 130.939 43.342C129.353 43.342 128.011 43.0573 126.913 42.488C125.815 41.9187 124.9 41.146 124.168 40.17C123.477 39.194 122.968 38.0553 122.643 36.754C122.358 35.412 122.216 34.009 122.216 32.545C122.216 31.1217 122.379 29.556 122.704 27.848C123.029 26.14 123.538 24.554 124.229 23.09C124.92 21.5853 125.795 20.345 126.852 19.369C127.909 18.3523 129.19 17.844 130.695 17.844C131.427 17.844 132.118 18.0067 132.769 18.332C133.42 18.6167 133.989 19.003 134.477 19.491C134.965 19.979 135.351 20.5483 135.636 21.199C135.921 21.8497 136.083 22.5207 136.124 23.212L136.185 24.066C136.185 25.042 136.022 26.1197 135.697 27.299C135.372 28.4377 134.904 29.5153 134.294 30.532C133.684 31.508 132.932 32.3417 132.037 33.033C131.142 33.6837 130.126 34.009 128.987 34.009C128.784 34.009 128.519 33.9887 128.194 33.948C127.909 33.9073 127.625 33.8463 127.34 33.765V35.534C127.34 35.8187 127.421 36.2253 127.584 36.754C127.787 37.2827 128.072 37.8113 128.438 38.34C128.804 38.828 129.272 39.2753 129.841 39.682C130.451 40.048 131.183 40.231 132.037 40.231C133.216 40.231 134.172 40.0073 134.904 39.56C135.677 39.072 136.307 38.462 136.795 37.73C137.283 36.998 137.649 36.1847 137.893 35.29C138.178 34.3547 138.401 33.46 138.564 32.606C138.686 32.0367 138.808 31.6503 138.93 31.447C139.052 31.2437 139.255 31.142 139.54 31.142C140.15 31.142 140.455 31.4877 140.455 32.179V32.606ZM133.257 23.151C133.257 22.8257 133.155 22.48 132.952 22.114C132.789 21.748 132.464 21.565 131.976 21.565C131.244 21.565 130.614 21.9513 130.085 22.724C129.556 23.4967 129.109 24.3913 128.743 25.408C128.418 26.384 128.174 27.3397 128.011 28.275C127.848 29.1697 127.767 29.7593 127.767 30.044V30.227C127.767 30.593 127.787 30.898 127.828 31.142C127.909 31.3453 128.133 31.447 128.499 31.447H128.804C129.617 31.447 130.309 31.142 130.878 30.532C131.447 29.922 131.895 29.19 132.22 28.336C132.586 27.482 132.85 26.6077 133.013 25.713C133.176 24.8183 133.257 24.0863 133.257 23.517V23.151ZM158.055 28.763C158.055 29.373 157.933 29.8407 157.689 30.166C157.486 30.4913 157.201 30.7353 156.835 30.898C156.469 31.0607 156.042 31.1827 155.554 31.264C155.107 31.3047 154.66 31.3453 154.212 31.386V31.691C154.212 32.545 154.09 33.6227 153.846 34.924C153.602 36.2253 153.236 37.486 152.748 38.706C152.301 39.926 151.711 40.9833 150.979 41.878C150.288 42.7727 149.454 43.2607 148.478 43.342C148.275 43.3827 148.072 43.403 147.868 43.403C147.665 43.403 147.462 43.403 147.258 43.403C145.306 43.403 143.781 42.9353 142.683 42C141.585 41.1053 140.772 39.9667 140.243 38.584C139.715 37.1607 139.389 35.6153 139.267 33.948C139.145 32.2807 139.084 30.6947 139.084 29.19C139.084 25.7333 139.43 22.2157 140.121 18.637C140.569 18.5963 140.975 18.5353 141.341 18.454C141.707 18.332 142.114 18.271 142.561 18.271C142.643 18.271 142.826 18.271 143.11 18.271C143.395 18.271 143.68 18.2913 143.964 18.332C144.29 18.3727 144.574 18.4337 144.818 18.515C145.062 18.5963 145.184 18.698 145.184 18.82C145.184 19.0233 145.164 19.308 145.123 19.674C145.083 19.9993 145.022 20.3653 144.94 20.772C144.9 21.138 144.839 21.504 144.757 21.87C144.717 22.236 144.676 22.541 144.635 22.785C144.432 24.2083 144.269 25.652 144.147 27.116C144.025 28.58 143.964 30.044 143.964 31.508C143.964 32.0773 144.005 32.8703 144.086 33.887C144.168 34.863 144.33 35.839 144.574 36.815C144.818 37.791 145.164 38.645 145.611 39.377C146.099 40.0683 146.73 40.414 147.502 40.414C148.234 40.414 148.824 40.048 149.271 39.316C149.719 38.5433 150.064 37.669 150.308 36.693C150.552 35.6763 150.715 34.68 150.796 33.704C150.878 32.6873 150.918 31.9147 150.918 31.386C150.918 31.1827 150.776 30.959 150.491 30.715C150.247 30.471 149.942 30.1457 149.576 29.739C149.251 29.3323 148.926 28.8443 148.6 28.275C148.316 27.7057 148.133 27.0143 148.051 26.201V24.92C148.051 24.5947 148.051 24.2083 148.051 23.761C148.092 23.3137 148.133 22.8663 148.173 22.419C148.255 21.931 148.336 21.4837 148.417 21.077C148.539 20.6297 148.682 20.284 148.844 20.04C148.844 19.9993 148.905 19.9383 149.027 19.857C149.19 19.7757 149.353 19.6943 149.515 19.613C149.678 19.5317 149.841 19.4707 150.003 19.43C150.166 19.3487 150.268 19.308 150.308 19.308C150.43 19.308 150.593 19.3283 150.796 19.369C151.04 19.4097 151.284 19.4503 151.528 19.491C151.813 19.5317 152.057 19.5927 152.26 19.674C152.504 19.7147 152.667 19.7553 152.748 19.796C152.952 19.918 153.074 20.1213 153.114 20.406C153.155 20.65 153.216 20.8533 153.297 21.016C153.501 21.6667 153.643 22.2767 153.724 22.846C153.846 23.3747 153.907 23.9237 153.907 24.493C153.948 25.0217 153.968 25.591 153.968 26.201C154.009 26.7703 154.05 27.421 154.09 28.153C154.09 28.275 154.273 28.4173 154.639 28.58C155.046 28.702 155.31 28.763 155.432 28.763C156.002 28.763 156.469 28.6003 156.835 28.275C157.201 27.9497 157.445 27.787 157.567 27.787C157.771 27.787 157.893 27.9293 157.933 28.214C158.015 28.458 158.055 28.641 158.055 28.763Z" fill="black"/>
</svg>
